<svg xmlns="http://www.w3.org/2000/svg" width="820" height="280" viewBox="0 0 820 280" role="img" aria-label="system motion map">
  <defs>
    <linearGradient id="bg" x1="0" y1="0" x2="0" y2="1">
      <stop offset="0" stop-color="#12151a"/>
      <stop offset="1" stop-color="#0a0c0f"/>
    </linearGradient>
    <linearGradient id="trailA" x1="0" y1="0" x2="1" y2="0">
      <stop offset="0" stop-color="#79a6a3" stop-opacity="0"/>
      <stop offset="0.5" stop-color="#79a6a3" stop-opacity="0.9"/>
      <stop offset="1" stop-color="#79a6a3" stop-opacity="0"/>
    </linearGradient>
    <linearGradient id="trailB" x1="0" y1="0" x2="1" y2="0">
      <stop offset="0" stop-color="#c79c57" stop-opacity="0"/>
      <stop offset="0.5" stop-color="#c79c57" stop-opacity="0.9"/>
      <stop offset="1" stop-color="#c79c57" stop-opacity="0"/>
    </linearGradient>
    <pattern id="grid" width="56" height="56" patternUnits="userSpaceOnUse">
      <path d="M56 0H0V56" fill="none" stroke="#c79c57" stroke-opacity="0.06" stroke-width="1"/>
      <path d="M0 0V56H56" fill="none" stroke="#79a6a3" stroke-opacity="0.05" stroke-width="1"/>
    </pattern>
  </defs>

  <rect width="820" height="280" fill="url(#bg)"/>
  <rect x="1" y="1" width="818" height="278" fill="none" stroke="#c79c57" stroke-opacity="0.2"/>
  <rect x="16" y="16" width="788" height="248" fill="none" stroke="#79a6a3" stroke-opacity="0.14"/>
  <rect x="16" y="16" width="788" height="248" fill="url(#grid)"/>

  <text x="36" y="42" fill="#7e7568" font-family="'IBM Plex Mono','Menlo','Consolas',monospace" font-size="13" letter-spacing="2.2">system motion</text>
  <text x="36" y="64" fill="#a79d8b" font-family="'IBM Plex Mono','Menlo','Consolas',monospace" font-size="12" letter-spacing="1.3">route map for recurring obsessions</text>

  <g stroke-width="2.2" fill="none" stroke-linecap="round">
    <path d="M92 192 C160 192, 188 176, 246 176 S348 194, 402 194 S494 148, 552 148 S650 166, 718 166" stroke="#2a3235"/>
    <path d="M92 136 C158 136, 204 94, 258 94 S350 124, 402 124 S494 92, 546 92 S654 112, 714 112" stroke="#2a3235"/>
    <path d="M92 220 C164 220, 196 230, 252 230 S344 204, 402 204 S500 224, 560 224 S652 202, 718 202" stroke="#2a3235"/>

    <path d="M92 136 C158 136, 204 94, 258 94 S350 124, 402 124 S494 92, 546 92 S654 112, 714 112" stroke="url(#trailA)"/>
    <path d="M92 192 C160 192, 188 176, 246 176 S348 194, 402 194 S494 148, 552 148 S650 166, 718 166" stroke="url(#trailB)"/>
    <path d="M92 220 C164 220, 196 230, 252 230 S344 204, 402 204 S500 224, 560 224 S652 202, 718 202" stroke="url(#trailA)"/>
  </g>

  <g font-family="'IBM Plex Mono','Menlo','Consolas',monospace" font-size="11" letter-spacing="1.2">
    <g>
      <circle cx="92" cy="136" r="5" fill="#79a6a3"/>
      <circle cx="258" cy="94" r="5" fill="#79a6a3"/>
      <circle cx="402" cy="124" r="5" fill="#79a6a3"/>
      <circle cx="546" cy="92" r="5" fill="#79a6a3"/>
      <circle cx="714" cy="112" r="5" fill="#79a6a3"/>
      <text x="74" y="124" fill="#7e7568">scan</text>
      <text x="236" y="82" fill="#7e7568">design</text>
      <text x="382" y="112" fill="#7e7568">build</text>
      <text x="524" y="80" fill="#7e7568">refine</text>
      <text x="694" y="100" fill="#7e7568">ship</text>
    </g>

    <g>
      <circle cx="92" cy="192" r="5" fill="#c79c57"/>
      <circle cx="246" cy="176" r="5" fill="#c79c57"/>
      <circle cx="402" cy="194" r="5" fill="#c79c57"/>
      <circle cx="552" cy="148" r="5" fill="#c79c57"/>
      <circle cx="718" cy="166" r="5" fill="#c79c57"/>
      <text x="70" y="210" fill="#7e7568">annoyance</text>
      <text x="228" y="194" fill="#7e7568">pattern</text>
      <text x="378" y="212" fill="#7e7568">tool</text>
      <text x="532" y="166" fill="#7e7568">habit</text>
      <text x="698" y="184" fill="#7e7568">relief</text>
    </g>

    <g>
      <circle cx="92" cy="220" r="5" fill="#79a6a3" fill-opacity="0.75"/>
      <circle cx="252" cy="230" r="5" fill="#79a6a3" fill-opacity="0.75"/>
      <circle cx="402" cy="204" r="5" fill="#79a6a3" fill-opacity="0.75"/>
      <circle cx="560" cy="224" r="5" fill="#79a6a3" fill-opacity="0.75"/>
      <circle cx="718" cy="202" r="5" fill="#79a6a3" fill-opacity="0.75"/>
      <text x="68" y="246" fill="#7e7568">bots</text>
      <text x="226" y="254" fill="#7e7568">scripts</text>
      <text x="374" y="230" fill="#7e7568">infra</text>
      <text x="534" y="250" fill="#7e7568">ops</text>
      <text x="686" y="228" fill="#7e7568">repeat</text>
    </g>
  </g>

  <rect x="630" y="28" width="144" height="46" fill="#0f1316" stroke="#c79c57" stroke-opacity="0.18"/>
  <text x="646" y="47" fill="#7e7568" font-family="'IBM Plex Mono','Menlo','Consolas',monospace" font-size="11" letter-spacing="1.6">legend</text>
  <circle cx="652" cy="62" r="4" fill="#79a6a3"/>
  <text x="664" y="66" fill="#a79d8b" font-family="'IBM Plex Mono','Menlo','Consolas',monospace" font-size="11">machine line</text>
  <circle cx="726" cy="62" r="4" fill="#c79c57"/>
  <text x="738" y="66" fill="#a79d8b" font-family="'IBM Plex Mono','Menlo','Consolas',monospace" font-size="11">human line</text>
</svg>
