<svg xmlns="http://www.w3.org/2000/svg" width="820" height="280" viewBox="0 0 820 280" role="img" aria-label="activity residue">
  <defs>
    <linearGradient id="bg" x1="0" y1="0" x2="1" y2="1">
      <stop offset="0" stop-color="#12151a"/>
      <stop offset="1" stop-color="#0a0c0f"/>
    </linearGradient>
    <linearGradient id="wash" x1="0" y1="0" x2="1" y2="0">
      <stop offset="0" stop-color="#c79c57" stop-opacity="0.10"/>
      <stop offset="0.55" stop-color="#79a6a3" stop-opacity="0.06"/>
      <stop offset="1" stop-color="#000000" stop-opacity="0"/>
    </linearGradient>
    <pattern id="grid" width="56" height="56" patternUnits="userSpaceOnUse">
      <path d="M56 0H0V56" fill="none" stroke="#c79c57" stroke-opacity="0.06" stroke-width="1"/>
      <path d="M0 0V56H56" fill="none" stroke="#79a6a3" stroke-opacity="0.05" stroke-width="1"/>
    </pattern>
  </defs>

  <rect width="820" height="280" fill="url(#bg)"/>
  <rect x="1" y="1" width="818" height="278" fill="none" stroke="#c79c57" stroke-opacity="0.2"/>
  <rect x="16" y="16" width="788" height="248" fill="url(#wash)" stroke="#79a6a3" stroke-opacity="0.14"/>
  <rect x="16" y="16" width="788" height="248" fill="url(#grid)"/>

  <text x="36" y="42" fill="#7e7568" font-family="'IBM Plex Mono','Menlo','Consolas',monospace" font-size="13" letter-spacing="2.2">activity residue</text>
  <text x="36" y="64" fill="#a79d8b" font-family="'IBM Plex Mono','Menlo','Consolas',monospace" font-size="12" letter-spacing="1.3">compressed trace of recent work</text>

  <g transform="translate(38 86)">
    <g fill="#12151a" stroke="#c79c57" stroke-opacity="0.10">
      <rect x="0" y="0" width="18" height="18"/><rect x="24" y="0" width="18" height="18"/><rect x="48" y="0" width="18" height="18"/><rect x="72" y="0" width="18" height="18"/><rect x="96" y="0" width="18" height="18"/><rect x="120" y="0" width="18" height="18"/><rect x="144" y="0" width="18" height="18"/><rect x="168" y="0" width="18" height="18"/><rect x="192" y="0" width="18" height="18"/><rect x="216" y="0" width="18" height="18"/><rect x="240" y="0" width="18" height="18"/><rect x="264" y="0" width="18" height="18"/><rect x="288" y="0" width="18" height="18"/><rect x="312" y="0" width="18" height="18"/><rect x="336" y="0" width="18" height="18"/><rect x="360" y="0" width="18" height="18"/><rect x="384" y="0" width="18" height="18"/><rect x="408" y="0" width="18" height="18"/><rect x="432" y="0" width="18" height="18"/><rect x="456" y="0" width="18" height="18"/><rect x="480" y="0" width="18" height="18"/><rect x="504" y="0" width="18" height="18"/><rect x="528" y="0" width="18" height="18"/><rect x="552" y="0" width="18" height="18"/><rect x="576" y="0" width="18" height="18"/>
      <rect x="0" y="24" width="18" height="18"/><rect x="24" y="24" width="18" height="18"/><rect x="48" y="24" width="18" height="18"/><rect x="72" y="24" width="18" height="18"/><rect x="96" y="24" width="18" height="18"/><rect x="120" y="24" width="18" height="18"/><rect x="144" y="24" width="18" height="18"/><rect x="168" y="24" width="18" height="18"/><rect x="192" y="24" width="18" height="18"/><rect x="216" y="24" width="18" height="18"/><rect x="240" y="24" width="18" height="18"/><rect x="264" y="24" width="18" height="18"/><rect x="288" y="24" width="18" height="18"/><rect x="312" y="24" width="18" height="18"/><rect x="336" y="24" width="18" height="18"/><rect x="360" y="24" width="18" height="18"/><rect x="384" y="24" width="18" height="18"/><rect x="408" y="24" width="18" height="18"/><rect x="432" y="24" width="18" height="18"/><rect x="456" y="24" width="18" height="18"/><rect x="480" y="24" width="18" height="18"/><rect x="504" y="24" width="18" height="18"/><rect x="528" y="24" width="18" height="18"/><rect x="552" y="24" width="18" height="18"/><rect x="576" y="24" width="18" height="18"/>
      <rect x="0" y="48" width="18" height="18"/><rect x="24" y="48" width="18" height="18"/><rect x="48" y="48" width="18" height="18"/><rect x="72" y="48" width="18" height="18"/><rect x="96" y="48" width="18" height="18"/><rect x="120" y="48" width="18" height="18"/><rect x="144" y="48" width="18" height="18"/><rect x="168" y="48" width="18" height="18"/><rect x="192" y="48" width="18" height="18"/><rect x="216" y="48" width="18" height="18"/><rect x="240" y="48" width="18" height="18"/><rect x="264" y="48" width="18" height="18"/><rect x="288" y="48" width="18" height="18"/><rect x="312" y="48" width="18" height="18"/><rect x="336" y="48" width="18" height="18"/><rect x="360" y="48" width="18" height="18"/><rect x="384" y="48" width="18" height="18"/><rect x="408" y="48" width="18" height="18"/><rect x="432" y="48" width="18" height="18"/><rect x="456" y="48" width="18" height="18"/><rect x="480" y="48" width="18" height="18"/><rect x="504" y="48" width="18" height="18"/><rect x="528" y="48" width="18" height="18"/><rect x="552" y="48" width="18" height="18"/><rect x="576" y="48" width="18" height="18"/>
      <rect x="0" y="72" width="18" height="18"/><rect x="24" y="72" width="18" height="18"/><rect x="48" y="72" width="18" height="18"/><rect x="72" y="72" width="18" height="18"/><rect x="96" y="72" width="18" height="18"/><rect x="120" y="72" width="18" height="18"/><rect x="144" y="72" width="18" height="18"/><rect x="168" y="72" width="18" height="18"/><rect x="192" y="72" width="18" height="18"/><rect x="216" y="72" width="18" height="18"/><rect x="240" y="72" width="18" height="18"/><rect x="264" y="72" width="18" height="18"/><rect x="288" y="72" width="18" height="18"/><rect x="312" y="72" width="18" height="18"/><rect x="336" y="72" width="18" height="18"/><rect x="360" y="72" width="18" height="18"/><rect x="384" y="72" width="18" height="18"/><rect x="408" y="72" width="18" height="18"/><rect x="432" y="72" width="18" height="18"/><rect x="456" y="72" width="18" height="18"/><rect x="480" y="72" width="18" height="18"/><rect x="504" y="72" width="18" height="18"/><rect x="528" y="72" width="18" height="18"/><rect x="552" y="72" width="18" height="18"/><rect x="576" y="72" width="18" height="18"/>
      <rect x="0" y="96" width="18" height="18"/><rect x="24" y="96" width="18" height="18"/><rect x="48" y="96" width="18" height="18"/><rect x="72" y="96" width="18" height="18"/><rect x="96" y="96" width="18" height="18"/><rect x="120" y="96" width="18" height="18"/><rect x="144" y="96" width="18" height="18"/><rect x="168" y="96" width="18" height="18"/><rect x="192" y="96" width="18" height="18"/><rect x="216" y="96" width="18" height="18"/><rect x="240" y="96" width="18" height="18"/><rect x="264" y="96" width="18" height="18"/><rect x="288" y="96" width="18" height="18"/><rect x="312" y="96" width="18" height="18"/><rect x="336" y="96" width="18" height="18"/><rect x="360" y="96" width="18" height="18"/><rect x="384" y="96" width="18" height="18"/><rect x="408" y="96" width="18" height="18"/><rect x="432" y="96" width="18" height="18"/><rect x="456" y="96" width="18" height="18"/><rect x="480" y="96" width="18" height="18"/><rect x="504" y="96" width="18" height="18"/><rect x="528" y="96" width="18" height="18"/><rect x="552" y="96" width="18" height="18"/><rect x="576" y="96" width="18" height="18"/>
      <rect x="0" y="120" width="18" height="18"/><rect x="24" y="120" width="18" height="18"/><rect x="48" y="120" width="18" height="18"/><rect x="72" y="120" width="18" height="18"/><rect x="96" y="120" width="18" height="18"/><rect x="120" y="120" width="18" height="18"/><rect x="144" y="120" width="18" height="18"/><rect x="168" y="120" width="18" height="18"/><rect x="192" y="120" width="18" height="18"/><rect x="216" y="120" width="18" height="18"/><rect x="240" y="120" width="18" height="18"/><rect x="264" y="120" width="18" height="18"/><rect x="288" y="120" width="18" height="18"/><rect x="312" y="120" width="18" height="18"/><rect x="336" y="120" width="18" height="18"/><rect x="360" y="120" width="18" height="18"/><rect x="384" y="120" width="18" height="18"/><rect x="408" y="120" width="18" height="18"/><rect x="432" y="120" width="18" height="18"/><rect x="456" y="120" width="18" height="18"/><rect x="480" y="120" width="18" height="18"/><rect x="504" y="120" width="18" height="18"/><rect x="528" y="120" width="18" height="18"/><rect x="552" y="120" width="18" height="18"/><rect x="576" y="120" width="18" height="18"/>
    </g>

    <g>
      <rect x="168" y="24" width="18" height="18" fill="#79a6a3"/>
      <rect x="192" y="24" width="18" height="18" fill="#79a6a3" fill-opacity="0.82"/>
      <rect x="216" y="24" width="18" height="18" fill="#c79c57" fill-opacity="0.70"/>
      <rect x="240" y="24" width="18" height="18" fill="#c79c57"/>
      <rect x="264" y="24" width="18" height="18" fill="#c79c57" fill-opacity="0.82"/>

      <rect x="144" y="48" width="18" height="18" fill="#79a6a3" fill-opacity="0.60"/>
      <rect x="168" y="48" width="18" height="18" fill="#79a6a3" fill-opacity="0.82"/>
      <rect x="192" y="48" width="18" height="18" fill="#79a6a3"/>
      <rect x="216" y="48" width="18" height="18" fill="#c79c57" fill-opacity="0.70"/>
      <rect x="240" y="48" width="18" height="18" fill="#c79c57"/>
      <rect x="264" y="48" width="18" height="18" fill="#c79c57"/>
      <rect x="288" y="48" width="18" height="18" fill="#c79c57" fill-opacity="0.72"/>

      <rect x="120" y="72" width="18" height="18" fill="#79a6a3" fill-opacity="0.46"/>
      <rect x="144" y="72" width="18" height="18" fill="#79a6a3" fill-opacity="0.68"/>
      <rect x="168" y="72" width="18" height="18" fill="#79a6a3"/>
      <rect x="192" y="72" width="18" height="18" fill="#c79c57" fill-opacity="0.62"/>
      <rect x="216" y="72" width="18" height="18" fill="#c79c57" fill-opacity="0.80"/>
      <rect x="240" y="72" width="18" height="18" fill="#c79c57"/>
      <rect x="264" y="72" width="18" height="18" fill="#c79c57"/>
      <rect x="288" y="72" width="18" height="18" fill="#79a6a3" fill-opacity="0.70"/>
      <rect x="312" y="72" width="18" height="18" fill="#79a6a3" fill-opacity="0.52"/>

      <rect x="96" y="96" width="18" height="18" fill="#79a6a3" fill-opacity="0.34"/>
      <rect x="120" y="96" width="18" height="18" fill="#79a6a3" fill-opacity="0.58"/>
      <rect x="144" y="96" width="18" height="18" fill="#79a6a3" fill-opacity="0.82"/>
      <rect x="168" y="96" width="18" height="18" fill="#79a6a3"/>
      <rect x="192" y="96" width="18" height="18" fill="#c79c57" fill-opacity="0.66"/>
      <rect x="216" y="96" width="18" height="18" fill="#c79c57" fill-opacity="0.84"/>
      <rect x="240" y="96" width="18" height="18" fill="#c79c57"/>
      <rect x="264" y="96" width="18" height="18" fill="#c79c57" fill-opacity="0.88"/>
      <rect x="288" y="96" width="18" height="18" fill="#79a6a3" fill-opacity="0.78"/>
      <rect x="312" y="96" width="18" height="18" fill="#79a6a3" fill-opacity="0.58"/>
      <rect x="336" y="96" width="18" height="18" fill="#79a6a3" fill-opacity="0.34"/>

      <rect x="120" y="120" width="18" height="18" fill="#79a6a3" fill-opacity="0.30"/>
      <rect x="144" y="120" width="18" height="18" fill="#79a6a3" fill-opacity="0.48"/>
      <rect x="168" y="120" width="18" height="18" fill="#79a6a3" fill-opacity="0.76"/>
      <rect x="192" y="120" width="18" height="18" fill="#79a6a3" fill-opacity="0.92"/>
      <rect x="216" y="120" width="18" height="18" fill="#c79c57" fill-opacity="0.54"/>
      <rect x="240" y="120" width="18" height="18" fill="#c79c57" fill-opacity="0.76"/>
      <rect x="264" y="120" width="18" height="18" fill="#c79c57" fill-opacity="0.92"/>
      <rect x="288" y="120" width="18" height="18" fill="#c79c57" fill-opacity="0.70"/>
      <rect x="312" y="120" width="18" height="18" fill="#79a6a3" fill-opacity="0.62"/>
      <rect x="336" y="120" width="18" height="18" fill="#79a6a3" fill-opacity="0.44"/>
      <rect x="360" y="120" width="18" height="18" fill="#79a6a3" fill-opacity="0.24"/>

      <rect x="432" y="48" width="18" height="18" fill="#c79c57" fill-opacity="0.58"/>
      <rect x="456" y="48" width="18" height="18" fill="#c79c57" fill-opacity="0.80"/>
      <rect x="480" y="48" width="18" height="18" fill="#c79c57"/>
      <rect x="504" y="48" width="18" height="18" fill="#79a6a3" fill-opacity="0.82"/>

      <rect x="456" y="72" width="18" height="18" fill="#c79c57" fill-opacity="0.48"/>
      <rect x="480" y="72" width="18" height="18" fill="#c79c57" fill-opacity="0.74"/>
      <rect x="504" y="72" width="18" height="18" fill="#c79c57" fill-opacity="0.92"/>
      <rect x="528" y="72" width="18" height="18" fill="#79a6a3" fill-opacity="0.76"/>
      <rect x="552" y="72" width="18" height="18" fill="#79a6a3" fill-opacity="0.52"/>

      <rect x="480" y="96" width="18" height="18" fill="#c79c57" fill-opacity="0.42"/>
      <rect x="504" y="96" width="18" height="18" fill="#c79c57" fill-opacity="0.66"/>
      <rect x="528" y="96" width="18" height="18" fill="#79a6a3" fill-opacity="0.84"/>
      <rect x="552" y="96" width="18" height="18" fill="#79a6a3" fill-opacity="0.62"/>
    </g>

    <g font-family="'IBM Plex Mono','Menlo','Consolas',monospace" font-size="11" fill="#7e7568">
      <text x="630" y="16">low</text>
      <text x="630" y="40">rising</text>
      <text x="630" y="64">steady</text>
      <text x="630" y="88">dense</text>
    </g>
    <g>
      <rect x="680" y="4" width="14" height="14" fill="#12151a" stroke="#c79c57" stroke-opacity="0.10"/>
      <rect x="680" y="28" width="14" height="14" fill="#79a6a3" fill-opacity="0.42"/>
      <rect x="680" y="52" width="14" height="14" fill="#79a6a3" fill-opacity="0.88"/>
      <rect x="680" y="76" width="14" height="14" fill="#c79c57" fill-opacity="0.90"/>
    </g>
  </g>
</svg>
